<svg xmlns="http://www.w3.org/2000/svg" viewBox="0 0 100 100">
    <defs>
        <linearGradient id="grad1" x1="0%" y1="0%" x2="100%" y2="100%">
            <stop offset="0%" stop-color="#bef264" stop-opacity="0.3" />
            <stop offset="50%" stop-color="transparent" />
            <stop offset="100%" stop-color="#34d399" stop-opacity="0.3" />
        </linearGradient>
        <linearGradient id="ticketGrad" x1="0%" y1="0%" x2="100%" y2="100%">
            <stop offset="0%" stop-color="#bef264" />
            <stop offset="100%" stop-color="#34d399" />
        </linearGradient>
        <mask id="cutout">
            <rect x="0" y="0" width="100" height="100" fill="white" />
            <rect x="40" y="34" width="6" height="32" rx="1.5" fill="black" />
            <rect x="40" y="34" width="18" height="6" rx="1.5" fill="black" />
            <rect x="40" y="47" width="14" height="6" rx="1.5" fill="black" />
            <rect x="40" y="60" width="18" height="6" rx="1.5" fill="black" />
        </mask>
    </defs>
    <rect x="0" y="0" width="100" height="100" rx="28" fill="#020617"/>
    <rect x="0" y="0" width="100" height="100" rx="28" fill="url(#grad1)"/>
    <path fill="url(#ticketGrad)" mask="url(#cutout)" d="M 35 24 h 30 a 8 8 0 0 1 8 8 v 10 a 8 8 0 0 1 0 16 v 10 a 8 8 0 0 1 -8 8 h -30 a 8 8 0 0 1 -8 -8 v -10 a 8 8 0 0 0 0 -16 v -10 a 8 8 0 0 1 8 -8 z" />
</svg>
